<?xml version="1.0" encoding="UTF-8"?><svg version="1.1" xmlns="http://www.w3.org/2000/svg" xmlns:xlink="http://www.w3.org/1999/xlink" viewBox="0 0 1600 1200" width="1600" height="1200" x="0px" y="0px">
              
              <!-- ITEM 0 -->
<g transform="translate(137.0 124.0) scale(1.67375 1.6733333333333333) rotate(0.0 400.0 300.0)">
<g transform="translate(-0.0 -0.0)">

<path style="fill:#E6E6E6;" d="M672.876,476.948l12.227-3.821c0.983-0.655,2.074-1.092,3.057-1.965l-18.996,6.114  C670.474,477.166,671.675,477.166,672.876,476.948z M664.251,476.948l27.62-8.952c0.546-0.437,0.873-0.983,1.419-1.419  l-30.895,9.825C663.05,476.729,663.705,476.838,664.251,476.948z M659.448,475.747l36.135-11.572  c0.437-0.327,0.546-0.764,0.983-1.201l-38.101,12.118C658.793,475.528,659.12,475.528,659.448,475.747z M656.609,473.891  l41.485-13.319c0.218-0.327,0.437-0.764,0.655-1.092l-42.795,13.756C656.063,473.563,656.391,473.782,656.609,473.891z   M654.535,471.816l45.197-14.411c0.218-0.328,0.218-0.655,0.437-1.092l-46.179,14.847  C654.317,471.38,654.426,471.707,654.535,471.816z M653.225,469.633l48.035-15.284c0-0.327,0.218-0.655,0.218-1.092l-48.69,15.611  C652.898,469.087,653.007,469.415,653.225,469.633z M652.024,467.231l49.891-16.048c0-0.328,0.109-0.655,0.218-1.092l-50.437,16.048  C651.806,466.685,651.915,466.904,652.024,467.231z M651.151,464.83l51.419-16.485c0-0.327,0.109-0.655,0.109-0.983l-51.856,16.703  C650.932,464.175,651.042,464.502,651.151,464.83z M650.714,461.882c0.109,0.109-0.109,0.218,0,0.327l52.293-16.703  c0-0.327,0.109-0.655,0.109-0.983l-52.075,16.594C650.932,461.336,650.823,461.554,650.714,461.882z M653.443,458.17  c-0.109,0.109-0.218,0.328-0.437,0.328l50.109-16.048c0-0.328-0.109-0.546,0-0.873l-48.799,15.721  C653.88,457.624,653.662,457.952,653.443,458.17z M655.845,455.004l46.834-14.956c0-0.328-0.109-0.546-0.218-0.873l-46.179,14.847  C656.282,454.349,656.063,454.568,655.845,455.004z M657.374,451.729l45.088-14.411c-0.109-0.327-0.109-0.546-0.218-0.873  l-44.433,14.301C657.483,451.183,657.483,451.511,657.374,451.729z M658.138,448.781l43.668-13.865  c-0.109-0.328-0.218-0.437-0.218-0.873l-43.122,13.865C658.247,448.236,658.138,448.454,658.138,448.781z M658.356,445.943  l42.467-13.537c-0.109-0.327-0.218-0.437-0.327-0.764l-42.249,13.428C658.356,445.397,658.356,445.725,658.356,445.943z   M658.138,443.214l41.267-13.21c-0.109-0.327-0.218-0.437-0.328-0.764l-41.048,13.1  C658.138,442.668,658.138,443.105,658.138,443.214z M657.592,440.703l40.284-12.991c-0.109-0.327-0.437-0.546-0.546-0.655  l-40.175,12.882C657.374,440.266,657.483,440.484,657.592,440.703z M695.365,424.982l-39.192,12.445  c0.109,0.327,0.218,0.437,0.328,0.764l39.52-12.664C696.02,425.419,695.693,425.201,695.365,424.982z M693.072,423.017  l-38.21,12.227c0.109,0.328,0.437,0.546,0.546,0.655l38.537-12.336C693.618,423.563,693.291,423.236,693.072,423.017z   M690.016,421.27l-36.463,11.572c0.109,0.328,0.218,0.437,0.328,0.764l37.227-12.009C690.671,421.598,690.452,421.38,690.016,421.27  z M686.195,419.851c-0.109,0.109-0.218-0.109-0.327,0l-32.205,10.262c-0.109,0.218-0.109,0.655-0.109,0.983l34.061-10.917  C687.068,420.179,686.631,419.96,686.195,419.851z M678.007,419.524l-20.852,6.659c-0.655,0.546-1.419,0.983-2.074,1.528  l26.419-8.406C680.409,419.415,679.099,419.415,678.007,419.524z"/>
<g>
	
		<linearGradient id="SVGID_1_-i0" gradientUnits="userSpaceOnUse" x1="5958.4717" y1="-2529.595" x2="7354.1338" y2="-2529.595" gradientTransform="matrix(0.1 0 0 -0.1 0 18)">
		<stop offset="0" style="stop-color:#B9D3FD"/>
		<stop offset="1" style="stop-color:#89B3F4"/>
	</linearGradient>
	<path style="fill:url(#SVGID_1_-i0);" d="M734.666,291.794c1.528,4.585-0.218,9.498-2.511,13.756   c-6.223,11.681-16.266,21.288-28.275,26.856c-6.659,3.166-13.865,5.022-20.742,7.86c-19.978,8.297-36.245,24.891-43.996,45.088   c2.293-13.974-5.022-27.839-13.974-38.865c-8.843-11.026-19.542-20.961-25.873-33.625c-5.459-10.917-5.568-27.074,5.459-32.315   c8.079-3.821,18.232,0.437,26.529-3.057c2.948-1.31,5.568-3.93,5.458-7.096c-0.437-8.079-16.376-7.533-16.812-15.611   c-0.437-9.28,24.018-6.55,20.852-15.393c-1.31-3.712-6.55-4.804-8.297-8.297c-1.856-3.493-1.747-8.406,1.419-10.917   c4.039-3.275,10.153-0.655,15.284-1.856c5.786-1.31,9.498-7.205,10.699-13.1c1.201-5.895,0.546-11.9,1.419-17.795   c2.074-14.52,13.974-27.074,28.275-30.131c14.301-3.057,30.24,3.712,37.991,16.157c3.166,5.131,4.913,12.009,1.528,16.921   c-2.948,4.148-9.279,6.878-8.734,11.9c0.655,6.878,13.428,7.533,13.646,14.411c0.218,8.079-16.376,8.079-15.939,16.157   c0.218,3.603,4.039,5.677,6.332,8.515c4.367,5.24,2.62,14.301-3.384,17.576c-2.402,1.31-5.24,1.856-7.096,3.712   c-4.804,4.694-0.109,12.991,5.568,16.485C725.169,282.624,732.592,285.353,734.666,291.794z"/>
	
		<linearGradient id="SVGID_2_-i0" gradientUnits="userSpaceOnUse" x1="6414.0796" y1="-2855.1492" x2="7869.9307" y2="-2855.1492" gradientTransform="matrix(0.1 0 0 -0.1 0 18)">
		<stop offset="0" style="stop-color:#DEEAFE"/>
		<stop offset="1" style="stop-color:#E9F1FE"/>
	</linearGradient>
	<path style="fill:url(#SVGID_2_-i0);" d="M692.745,292.34c3.384-1.856,6.987-3.603,9.716-6.441c5.568-6.114,5.24-15.284,5.677-23.581   c0.437-8.297,3.384-18.013,11.354-20.197c6.659-1.856,15.066,2.183,19.978-2.62c1.856-1.747,2.62-4.367,3.93-6.55   c5.677-9.498,20.633-8.734,28.93-1.419c8.188,7.314,11.354,18.668,14.083,29.367c0.983,3.93,1.092,9.389-2.729,10.48   c-3.712,0.983-7.424-3.603-10.917-2.183c-2.838,1.092-3.057,5.131-1.965,8.079c0.983,2.838,2.729,5.786,2.074,8.843   c-1.31,5.677-9.279,6.004-14.956,4.476c-5.677-1.528-12.991-3.057-16.266,1.856c3.603,11.463,6.659,25.437-1.419,34.498   c-9.279,10.371-26.419,9.28-40.284,10.59c-25.764,2.402-43.996,22.052-58.516,43.559   C640.561,345.069,661.195,309.48,692.745,292.34z"/>
</g>
<g>
	<path style="fill:#FFFFFF;" d="M660.43,364.72c-0.109,0-0.109,0-0.218,0c-0.328-0.109-0.437-0.437-0.328-0.655   c13.101-40.066,33.952-67.904,72.053-95.961c7.096-5.24,28.494-14.083,37.773-14.847c0.218,0,0.546,0.218,0.546,0.546   s-0.218,0.546-0.546,0.546c-8.843,0.764-30.349,9.607-37.118,14.629c-37.991,27.948-58.734,55.568-71.725,95.415   C660.867,364.502,660.649,364.72,660.43,364.72z"/>
</g>
<path style="fill:#FFFFFF;" d="M680.627,247.252l-4.367-12.009c-1.528-0.109-3.166,0.109-4.694,0.655l4.694,12.882  c0.218,0.764-0.109,1.528-0.873,1.747c-0.764,0.218-1.528-0.109-1.747-0.873l-4.694-12.664c-1.419,0.873-2.62,2.074-3.603,3.384  l3.93,10.699c0.218,0.764-0.109,1.528-0.873,1.747c-0.764,0.218-1.528-0.109-1.747-0.873l-3.057-8.406  c-1.747,4.367-1.856,9.935,0.109,15.393c0,0.109,0.109,0.218,0.109,0.328c-0.983,0.546-2.074,1.201-2.948,1.965  c-2.729,1.965-6.223,5.349-7.424,10.153l1.31,0.328c1.092-4.367,4.367-7.533,6.878-9.28c0.873-0.655,1.747-1.201,2.729-1.747  c2.074,4.585,5.458,8.297,9.17,10.262l-2.948-7.969c-0.218-0.764,0.109-1.528,0.873-1.747s1.528,0.109,1.747,0.873l3.821,10.262  c1.638,0.437,3.275,0.546,4.913,0.218l-4.367-12.009c-0.218-0.764,0.109-1.528,0.873-1.747c0.764-0.218,1.528,0.109,1.747,0.873  l4.476,12.118c1.419-0.655,2.729-1.638,3.821-2.729l-4.039-10.917c-0.218-0.764,0.109-1.528,0.873-1.747  c0.764-0.218,1.528,0.109,1.747,0.873l3.493,9.389c1.092-1.638,2.074-3.384,2.948-5.24l-2.183-5.895  c-0.218-0.764,0.109-1.528,0.873-1.747c0.764-0.218,1.528,0.109,1.747,0.873l1.201,3.166c2.183-5.24,3.603-10.371,5.459-12.009  c-3.057-0.655-7.314-3.493-12.009-6.114l1.528,4.039c0.218,0.764-0.109,1.528-0.873,1.747c-0.764,0.218-1.528-0.109-1.747-0.873  l-2.511-6.878c-1.856-0.873-3.712-1.528-5.568-1.965l3.821,10.59c0.218,0.764-0.109,1.528-0.873,1.747  C681.719,248.344,680.954,248.016,680.627,247.252z"/>
<rect x="342.853" y="380.986" style="fill:#D6D7D8;" width="121.835" height="135.481"/>
<rect x="267.415" y="512.101" style="fill:#428DFC;" width="272.709" height="10.48"/>
<linearGradient id="SVGID_3_-i0" gradientUnits="userSpaceOnUse" x1="1361.9219" y1="-2771.7815" x2="6713.4741" y2="-2771.7815" gradientTransform="matrix(0.1 0 0 -0.1 0 18)">
	<stop offset="0" style="stop-color:#EEEEEE"/>
	<stop offset="1" style="stop-color:#D6D7D8"/>
</linearGradient>
<rect x="136.192" y="121.924" style="fill:url(#SVGID_3_-i0);" width="535.155" height="346.508"/>
<rect x="145.581" y="130.549" style="fill:#FFFFFF;" width="516.378" height="285.372"/>
<g>
	
		<rect x="379.613" y="437.736" transform="matrix(-0.7071 -0.7071 0.7071 -0.7071 343.4806 1027.6814)" style="fill:#A1C3FC;" width="9.934" height="9.934"/>
	
		<rect x="398.775" y="437.721" transform="matrix(-0.7071 -0.7071 0.7071 -0.7071 376.2033 1041.2053)" style="fill:#FFFFFF;" width="9.934" height="9.934"/>
	
		<rect x="417.938" y="437.751" transform="matrix(-0.7071 -0.7071 0.7071 -0.7071 408.8945 1054.8064)" style="fill:#1D72D8;" width="9.934" height="9.934"/>
</g>
<path style="fill:#D3E3FE;" d="M660.539,81.422c0,0.218,0,0.437,0,0.655c0,9.061,7.314,16.376,16.376,16.376  s16.376-7.314,16.376-16.376c0-0.218,0-0.437,0-0.655H660.539z"/>
<path style="fill:#A1C3FC;" d="M719.164,41.574c0,0.328,0,0.764,0,1.092c0,14.956,12.118,27.074,27.074,27.074  s27.074-12.118,27.074-27.074c0-0.328,0-0.764,0-1.092C773.313,41.574,719.164,41.574,719.164,41.574z"/>
<path style="fill:#F4F4F4;" d="M32.698,13.19c0,0.655,0,1.201,0,1.856c0,25.218,20.524,45.743,45.743,45.743  s45.743-20.524,45.743-45.743c0-0.655,0-1.201,0-1.856C124.183,13.19,32.698,13.19,32.698,13.19z"/>
<path style="fill:#E7EFFE;" d="M80.624,13.19c0,0.437,0,0.873,0,1.31c0,18.341,14.847,33.188,33.188,33.188S147,32.841,147,14.5  c0-0.437,0-0.873,0-1.31C147,13.19,80.624,13.19,80.624,13.19z"/>
<g>
	
		<linearGradient id="SVGID_4_-i0" gradientUnits="userSpaceOnUse" x1="4547.144" y1="-2848.5498" x2="5952.8911" y2="-2848.5498" gradientTransform="matrix(-0.0964 0.0265 -0.0265 -0.0964 553.6074 -2.2324)">
		<stop offset="0" style="stop-color:#B9D3FD"/>
		<stop offset="1" style="stop-color:#89B3F4"/>
	</linearGradient>
	<path style="fill:url(#SVGID_4_-i0);" d="M61.41,450.31c-0.218,4.803,2.729,9.17,6.114,12.664c9.17,9.716,21.507,16.376,34.607,18.559   c7.314,1.201,14.847,1.201,22.271,2.074c21.616,2.729,41.812,14.52,54.804,31.987c-6.004-12.991-2.511-28.384,3.166-41.485   c5.677-13.1,13.428-25.546,16.157-39.52c2.402-12.009-1.856-27.839-13.974-29.913c-8.952-1.528-17.686,5.349-26.638,4.039   c-3.166-0.437-6.55-2.293-7.205-5.459c-1.747-7.969,13.974-11.681,12.118-19.651c-2.074-9.17-25.109,0-24.345-9.28   c0.328-3.93,5.022-6.332,5.895-10.262s-0.546-8.624-4.258-10.153c-4.804-2.074-10.044,2.074-15.284,2.293   c-6.004,0.328-11.135-4.476-13.865-9.825s-3.712-11.463-6.114-16.921c-5.895-13.537-20.742-22.598-35.481-21.725   c-14.738,0.873-28.384,11.681-32.642,25.873c-1.747,5.786-1.638,12.991,3.057,16.921c3.93,3.275,10.808,4.148,11.681,9.17   c1.201,6.878-11.026,10.917-9.389,17.686c1.856,7.969,18.122,3.493,19.76,11.463c0.764,3.603-2.402,6.659-3.821,9.935   c-2.838,6.223,1.31,14.52,7.969,16.157c2.62,0.655,5.568,0.327,7.969,1.638c5.895,3.275,3.603,12.555-0.983,17.467   C68.179,439.065,61.847,443.541,61.41,450.31z"/>
	
		<linearGradient id="SVGID_5_-i0" gradientUnits="userSpaceOnUse" x1="5005.2349" y1="-3177.0505" x2="6471.7524" y2="-3177.0505" gradientTransform="matrix(-0.0964 0.0265 -0.0265 -0.0964 553.6074 -2.2324)">
		<stop offset="0" style="stop-color:#DEEAFE"/>
		<stop offset="1" style="stop-color:#E9F1FE"/>
	</linearGradient>
	<path style="fill:url(#SVGID_5_-i0);" d="M102.458,439.72c-3.821-0.873-7.751-1.638-11.135-3.712   c-7.096-4.476-9.17-13.537-11.79-21.397c-2.62-7.86-8.079-16.594-16.376-16.594c-6.987,0-14.083,6.223-20.087,2.838   c-2.293-1.31-3.712-3.603-5.568-5.349c-7.969-7.642-22.38-2.948-28.384,6.332s-6.004,21.179-5.895,32.315   c0.109,4.039,1.419,9.389,5.459,9.389c3.821,0,6.223-5.459,10.044-5.022c3.057,0.327,4.367,4.258,4.148,7.314   c-0.218,3.057-1.092,6.332,0.328,9.061c2.729,5.24,10.699,3.384,15.721,0.327c5.022-3.057,11.79-6.441,16.266-2.511   c-0.437,12.118,0.328,26.528,10.59,33.079c11.79,7.533,28.166,1.965,41.922-0.437c25.655-4.585,48.69,9.716,68.45,26.747   C167.088,476.948,137.611,447.908,102.458,439.72z"/>
	<path style="fill:none;stroke:#428DFC;stroke-width:2;stroke-linecap:round;stroke-miterlimit:10;" d="M178.878,517.232   c-8.734-22.817-15.721-46.288-21.07-70.088"/>
	
		<ellipse transform="matrix(-0.2235 -0.9747 0.9747 -0.2235 -240.659 697.7426)" style="fill:#23286B;" cx="157.599" cy="444.732" rx="4.694" ry="12.445"/>
	<path style="fill:none;stroke:#428DFC;stroke-width:2;stroke-linecap:round;stroke-miterlimit:10;" d="M157.153,444.305   c-2.948-13.537-5.349-27.074-7.205-40.83"/>
	
		<ellipse transform="matrix(-0.3174 -0.9483 0.9483 -0.3174 -182.6591 669.1458)" style="fill:#23286B;" cx="149.504" cy="400.314" rx="5.568" ry="14.957"/>
	<path style="fill:none;stroke:#428DFC;stroke-width:2;stroke-linecap:round;stroke-miterlimit:10;" d="M149.402,399.873   c-1.419-11.354-2.511-22.708-3.275-34.061"/>
	
		<ellipse transform="matrix(-0.0106 -0.9999 0.9999 -0.0106 -213.3985 512.5897)" style="fill:#23286B;" cx="146.883" cy="361.865" rx="5.567" ry="14.956"/>
	<path style="fill:none;stroke:#428DFC;stroke-width:2;stroke-linecap:round;stroke-miterlimit:10;" d="M145.908,361.008   c-0.437-8.624-0.655-17.358-0.764-26.092"/>
	
		<ellipse transform="matrix(-0.0106 -0.9999 0.9999 -0.0106 -183.616 479.1787)" style="fill:#23286B;" cx="145.246" cy="330.426" rx="7.532" ry="20.087"/>
	<path style="fill:none;stroke:#428DFC;stroke-width:2;stroke-linecap:round;stroke-miterlimit:10;" d="M145.144,329.021   c0.109-5.786,0.218-11.572,0.437-17.358"/>
</g>
<path style="fill:#FFFFFF;" d="M132.808,484.917l4.367-12.009c1.528-0.109,3.166,0.109,4.694,0.655l-4.694,12.882  c-0.218,0.764,0.109,1.528,0.873,1.747s1.528-0.109,1.747-0.873l4.694-12.664c1.419,0.873,2.62,2.074,3.603,3.384l-3.93,10.699  c-0.218,0.764,0.109,1.528,0.873,1.747s1.528-0.109,1.747-0.873l3.057-8.406c1.747,4.367,1.856,9.935-0.109,15.393  c0,0.109-0.109,0.218-0.109,0.328c0.983,0.546,2.074,1.201,2.948,1.965c2.729,1.965,6.223,5.349,7.424,10.153l-1.31,0.328  c-1.092-4.367-4.367-7.533-6.878-9.28c-0.873-0.655-1.747-1.201-2.729-1.747c-2.074,4.585-5.459,8.297-9.17,10.262l2.948-7.969  c0.218-0.764-0.109-1.528-0.873-1.747c-0.764-0.218-1.528,0.109-1.747,0.873l-3.821,10.262c-1.638,0.437-3.275,0.546-4.913,0.218  l4.367-12.009c0.218-0.764-0.109-1.528-0.873-1.747s-1.528,0.109-1.747,0.873l-4.476,12.118c-1.419-0.655-2.729-1.638-3.821-2.729  l4.039-10.917c0.218-0.764-0.109-1.528-0.873-1.747c-0.764-0.218-1.528,0.109-1.747,0.873l-3.493,9.389  c-1.092-1.638-2.074-3.384-2.948-5.24l2.183-5.895c0.218-0.764-0.109-1.528-0.873-1.747s-1.528,0.109-1.747,0.873l-1.201,3.166  c-2.183-5.24-3.603-10.371-5.459-12.009c3.057-0.655,7.314-3.493,12.009-6.114l-1.528,4.039c-0.218,0.764,0.109,1.528,0.873,1.747  s1.528-0.109,1.747-0.873l2.511-6.878c1.856-0.873,3.712-1.528,5.568-1.965l-3.821,10.59c-0.218,0.764,0.109,1.528,0.873,1.747  C131.716,486.009,132.48,485.681,132.808,484.917z"/>
<path style="fill:#B3C9EE;" d="M109.555,136.007l-8.188-0.983c-0.764,0.109-1.528,0.109-2.293,0.328l12.773,1.419  C110.974,136.553,110.319,136.225,109.555,136.007z M114.576,138.3l-18.559-2.074c-0.437,0.109-0.764,0.328-1.201,0.437  l20.742,2.402C115.231,138.736,114.904,138.518,114.576,138.3z M117.087,140.265l-24.236-2.729  c-0.328,0.109-0.546,0.328-0.873,0.437l25.546,2.948C117.415,140.592,117.196,140.483,117.087,140.265z M118.288,142.121  l-27.839-3.166c-0.218,0.109-0.437,0.328-0.655,0.437l28.712,3.275C118.507,142.448,118.397,142.23,118.288,142.121z   M118.943,143.867l-30.349-3.493c-0.218,0.109-0.328,0.328-0.546,0.546l31.005,3.493  C118.943,144.195,118.943,143.977,118.943,143.867z M119.162,145.505l-32.205-3.712c-0.109,0.218-0.328,0.328-0.437,0.546  l32.642,3.712C119.162,145.942,119.162,145.723,119.162,145.505z M119.162,147.252l-33.515-3.821  c-0.109,0.218-0.218,0.328-0.437,0.546l33.843,3.93C119.162,147.579,119.162,147.47,119.162,147.252z M119.052,148.889l-34.498-3.93  c-0.109,0.218-0.218,0.328-0.328,0.546l34.825,3.93C119.052,149.326,119.052,149.108,119.052,148.889z M118.507,150.745  c0-0.109,0.109-0.109,0.109-0.218l-35.044-4.039c-0.109,0.218-0.218,0.328-0.328,0.546l34.935,4.039  C118.288,150.964,118.397,150.854,118.507,150.745z M115.996,152.164c0.109,0,0.218-0.109,0.328-0.109l-33.625-3.821  c-0.109,0.218-0.109,0.328-0.218,0.546l32.751,3.712C115.559,152.383,115.777,152.274,115.996,152.164z M113.703,153.365  l-31.441-3.603c-0.109,0.218-0.109,0.328-0.109,0.546l31.005,3.493C113.266,153.693,113.485,153.584,113.703,153.365z   M111.956,154.894l-30.24-3.493c0,0.218-0.109,0.328-0.109,0.546l29.804,3.384C111.738,155.221,111.847,155.003,111.956,154.894z   M110.755,156.422l-29.258-3.384c0,0.218,0,0.328-0.109,0.546l28.93,3.275C110.537,156.75,110.646,156.64,110.755,156.422z   M109.882,158.06l-28.494-3.275c0,0.218,0,0.328,0,0.546l28.275,3.275C109.664,158.387,109.773,158.169,109.882,158.06z   M109.227,159.697l-27.729-3.166c0,0.218,0,0.328,0,0.546l27.511,3.166C109.118,160.025,109.227,159.806,109.227,159.697z   M108.899,161.335l-27.074-3.057c0,0.218,0.109,0.437,0.109,0.546l26.965,3.057C108.899,161.662,108.899,161.444,108.899,161.335z   M82.589,160.571l26.31,3.057c0-0.218,0-0.328,0-0.546l-26.529-3.057C82.371,160.134,82.48,160.352,82.589,160.571z M83.463,162.317  l25.655,2.948c0-0.218-0.109-0.437-0.109-0.546l-25.873-2.948C83.244,161.881,83.354,162.099,83.463,162.317z M84.773,164.173  l24.454,2.838c0-0.218,0-0.328,0-0.546l-25-2.838C84.445,163.737,84.554,163.955,84.773,164.173z M86.629,166.029  c0.109,0,0.109,0.109,0.218,0.109l21.616,2.511c0.109-0.109,0.218-0.328,0.328-0.546l-22.817-2.62  C86.192,165.592,86.41,165.811,86.629,166.029z M91.323,168.322l13.974,1.638c0.546-0.109,1.092-0.218,1.638-0.328l-17.686-2.074  C89.904,167.776,90.668,168.103,91.323,168.322z"/>
<path style="fill:#B3C9EE;" d="M687.068,497.253l12.773,0.546c1.201-0.218,2.402-0.328,3.493-0.764l-19.978-0.655  C684.775,496.598,685.867,497.035,687.068,497.253z M678.989,494.306l29.039,0.983c0.655-0.218,1.092-0.546,1.856-0.873  l-32.424-1.201C678.007,493.76,678.443,494.087,678.989,494.306z M674.95,491.576l37.882,1.31c0.546-0.218,0.764-0.546,1.31-0.764  l-39.956-1.528C674.404,491.14,674.732,491.249,674.95,491.576z M672.767,488.847l43.559,1.528c0.327-0.218,0.655-0.546,0.983-0.764  l-44.869-1.638C672.439,488.41,672.657,488.738,672.767,488.847z M671.566,486.227l47.489,1.747  c0.328-0.218,0.437-0.546,0.764-0.873l-48.472-1.747C671.566,485.681,671.566,486.009,671.566,486.227z M671.02,483.716  l50.328,1.856c0.109-0.328,0.437-0.546,0.655-0.873l-51.092-1.856C671.02,483.061,671.02,483.389,671.02,483.716z M670.802,480.987  l52.402,1.965c0.109-0.328,0.327-0.546,0.655-0.873l-52.948-2.074C670.802,480.55,670.802,480.659,670.802,480.987z   M670.802,478.476l53.93,1.965c0.109-0.328,0.328-0.546,0.437-0.873l-54.476-1.965C670.802,477.821,670.802,478.148,670.802,478.476  z M671.457,475.528c0,0.218-0.109,0.218-0.109,0.328l54.804,2.074c0.109-0.327,0.328-0.546,0.437-0.873l-54.585-2.074  C671.784,475.201,671.566,475.31,671.457,475.528z M675.168,473.017c-0.218,0-0.328,0.218-0.546,0.218l52.62,1.856  c0.109-0.327,0.109-0.546,0.328-0.873l-51.201-1.856C675.823,472.581,675.496,472.799,675.168,473.017z M678.553,470.834  l49.127,1.856c0.109-0.328,0.109-0.546,0.109-0.873l-48.472-1.747C679.208,470.288,678.88,470.506,678.553,470.834z   M681.064,468.323l47.271,1.747c0-0.328,0.109-0.546,0.109-0.873l-46.616-1.638C681.391,467.777,681.282,468.105,681.064,468.323z   M682.81,465.812l45.743,1.747c0-0.327,0-0.546,0.109-0.873l-45.197-1.638C683.029,465.266,682.919,465.485,682.81,465.812z   M683.902,463.192l44.542,1.638c0-0.327,0-0.546-0.109-0.873l-44.214-1.747C684.23,462.646,684.12,462.974,683.902,463.192z   M684.775,460.572l43.341,1.638c0-0.327,0-0.546-0.109-0.873l-43.013-1.638C684.885,460.026,684.775,460.354,684.775,460.572z   M685.103,457.952l42.358,1.528c0-0.327-0.218-0.655-0.218-0.873l-42.14-1.528C684.994,457.406,685.103,457.733,685.103,457.952z   M725.933,455.987l-41.157-1.638c0,0.328,0,0.546,0.109,0.873l41.485,1.528C726.37,456.642,726.151,456.314,725.933,455.987z   M724.404,453.367l-40.066-1.528c0,0.327,0.218,0.655,0.218,0.873l40.502,1.528C724.732,454.022,724.623,453.694,724.404,453.367z   M722.112,450.637l-38.21-1.528c0,0.328,0,0.546,0.109,0.873l39.083,1.419C722.658,451.292,722.439,450.965,722.112,450.637z   M719.055,448.017c-0.218,0-0.218-0.109-0.328-0.109l-33.843-1.31c-0.109,0.218-0.327,0.546-0.437,0.873l35.699,1.31  C719.71,448.672,719.383,448.345,719.055,448.017z M711.522,445.07l-21.834-0.873c-0.873,0.218-1.638,0.437-2.511,0.655l27.62,1.092  C713.706,445.725,712.505,445.288,711.522,445.07z"/>

</g>
</g>

<!-- ITEM 1 -->
<g transform="translate(419.0 182.0) scale(2.4966666666666666 2.5) rotate(0.0 150.0 120.0)">
<g transform="translate(-0.0 -0.0)">

<linearGradient id="SVGID_1_-i1" gradientUnits="userSpaceOnUse" x1="1427.4817" y1="2298.1077" x2="2178.9756" y2="2298.1077" gradientTransform="matrix(0.1875 -0.0696 0.0696 0.1875 -326.9215 -162.1984)">
	<stop offset="0" style="stop-color:#23286B"/>
	<stop offset="1" style="stop-color:#151A4F"/>
</linearGradient>
<polygon fill="url(#SVGID_1_-i1)" points="267.623,187.562 126.907,240 74.641,98.821 215.357,46.384 "/>
<path fill="#F2A19C" d="M215.415,117.58c1.349,0.894,2.686,1.901,3.512,3.297c0.824,1.396,1.029,3.27,0.112,4.607  c-1.01,1.472-3.085,1.875-4.808,1.426c-1.723-0.449-3.182-1.574-4.586-2.672c-6.708-5.241-13.448-10.512-19.25-16.749  c2.189-4.42,6.395-7.414,9.692-11.077c2.915-3.239,5.161-7.081,6.554-11.215c5.648-0.158,12.95,3.923,16.356,8.444  c-4.626,8.17-14.243,12.424-21.953,17.758C206.15,112.581,211.041,114.685,215.415,117.58z"/>
<path fill="#F2A19C" d="M205.818,128.318c-1.344,1.086-3.295,0.906-4.961,0.456c-5.586-1.511-10.226-5.317-14.677-9.023  c-0.868-0.723-1.751-1.461-2.357-2.416c-0.578-0.908-0.88-2.033-0.63-3.081c0.249-1.047,1.123-1.969,2.189-2.091  c0.681-0.078,1.354,0.158,1.994,0.403c1.97,0.751,3.898,1.61,5.824,2.469c2.176,0.97,4.35,1.94,6.525,2.91  c2.389,1.065,4.901,2.231,6.378,4.394C207.339,124.152,207.522,126.941,205.818,128.318z"/>
<path fill="#FFBEB6" d="M238.615,86.813c-1.304-1.923-3.987-2.145-6.303-2.255c-11.65-0.552-23.55-3.234-32.997-10.099  c-0.91-0.662-1.875-1.388-2.998-1.421c-1.273-0.036-2.418,0.867-3.074,1.962c-0.656,1.095-0.927,2.371-1.253,3.606  c-3.361,12.671-13.287,22.401-23.224,30.918c0.547,1.336,2.076,1.959,3.485,2.25c6.277,1.299,12.885-1.312,17.701-5.554  c4.816-4.242,8.099-9.947,10.906-15.727c0.405-0.833,0.443-2.279-0.48-2.236c2.103,3.982,6.061,6.589,9.944,8.855  c2.771,1.619,5.675,3.183,8.857,3.583c5.318,0.669,10.455-1.999,14.967-4.901c1.575-1.013,3.166-2.107,4.186-3.681  C239.351,90.542,239.667,88.365,238.615,86.813z"/>
<g>
	<g>
		<path fill="#D62929" d="M172.455,135.603c-0.326,0-0.655-0.101-0.938-0.312c-0.696-0.52-0.839-1.508-0.321-2.206l14.079-18.958    c0.519-0.698,1.5-0.842,2.199-0.322c0.696,0.52,0.839,1.508,0.321,2.206l-14.079,18.958    C173.408,135.384,172.934,135.603,172.455,135.603z"/>
	</g>
	<g>
		
			<linearGradient id="SVGID_2_-i1" gradientUnits="userSpaceOnUse" x1="-1070.905" y1="2414.1309" x2="-1351.0502" y2="2414.1309" gradientTransform="matrix(-0.1604 -0.1195 0.1195 -0.1604 -245.7674 321.0435)">
			<stop offset="0" style="stop-color:#E94A47"/>
			<stop offset="1" style="stop-color:#D62929"/>
		</linearGradient>
		<path fill="url(#SVGID_2_-i1)" d="M239.948,30.155c-5.69,8.026-12.123,17.159-18.649,26.544    c-22.835,32.837-46.798,68.731-43.986,70.873c3.439,2.618,30.798-30.783,55.429-62.318c7.034-9.005,13.843-17.857,19.811-25.676    c6.353-8.324,11.751-15.476,15.446-20.391c2.922-3.888,2.323-9.278-1.335-12.011l0,0c-3.686-2.755-9.051-1.751-11.91,2.231    C251.168,14.398,245.974,21.655,239.948,30.155z"/>
		<polygon fill="#1D72D8" points="256.142,22.969 255.104,15.838 262.212,14.797 263.249,21.927   "/>
		<path fill="#23286B" d="M249.448,36.685l-2.152-14.785l-1.653,0.242c-1.789,2.51-3.694,5.191-5.695,8.012    c-1.734,2.446-3.537,4.996-5.391,7.622l0.156,1.067L249.448,36.685z"/>
		<path fill="#78A9EF" d="M232.991,49.466l1.649,11.329l1.777-0.261c2.793-3.594,5.532-7.137,8.177-10.574l-0.313-2.148    L232.991,49.466z"/>
		<polygon fill="#FFFFFF" points="220.093,67.965 219.307,62.563 224.692,61.774 225.478,67.176   "/>
	</g>
	<polygon fill="#428DFC" points="269.477,12.057 261.298,5.943 265.711,0 273.891,6.115  "/>
	<g>
		<path fill="#23286B" d="M245.325,59.195c-0.514,0-0.986-0.34-1.133-0.862c-1.308-4.641,0.629-10.098,5.176-14.596    c1.848-1.828,3.93-3.395,5.943-4.909c1.917-1.442,3.9-2.932,5.613-4.611c5.162-5.058,8.152-12.11,8.203-19.349    c0.005-0.829-0.041-1.675-0.413-2.236c-0.201-0.302-0.782-0.528-1.455-0.79c-0.899-0.35-2.017-0.786-3.118-1.703    c-0.235-0.197-0.458-0.376-0.668-0.545c-1.326-1.072-2.374-1.918-3.107-4.01c-0.216-0.616,0.107-1.291,0.721-1.508    c0.617-0.214,1.287,0.107,1.503,0.723c0.512,1.457,1.129,1.958,2.363,2.955c0.218,0.177,0.448,0.363,0.694,0.567    c0.806,0.672,1.651,1,2.467,1.318c0.958,0.373,1.95,0.759,2.563,1.683c0.726,1.092,0.817,2.358,0.809,3.564    c-0.055,7.865-3.304,15.528-8.914,21.024c-1.822,1.786-3.867,3.324-5.845,4.811c-1.951,1.467-3.968,2.984-5.703,4.7    c-3.927,3.885-5.632,8.472-4.563,12.27c0.177,0.628-0.186,1.281-0.813,1.459C245.539,59.181,245.431,59.195,245.325,59.195z"/>
	</g>
</g>
<path fill="#FFBEB6" d="M232.297,130.413c5.723,2.502,12.265,0.441,18.359-0.917c13.937-3.107,28.725-2.279,42.231,2.362  c2.82-9.146,2.051-18.493,4.87-27.64c-6.387,1.37-9.186,2.94-15.574,4.31c-8.19,1.756-17.069,3.445-24.662-0.099  c-6.686-3.122-10.995-9.683-14.937-15.935c-2.219-3.519-5.318-7.501-9.445-7.063c-4.421,0.469-6.491,5.522-9.241,9.026  c-4.897,6.238-13.646,7.053-21.064,9.819c-8.939,3.332-11.84,5.391-19.255,6.916c-0.84,0.173-3.859,1.237-4.549,1.747  c-2.923,2.166,0.971,6.062,4.365,7.365c12.027,4.614,25.246-6.508,36.301,0.119C224.311,123.188,227.366,128.259,232.297,130.413z"/>
<path fill="#A1C3FC" d="M116.569,51.193h-0.842c0.283,0.151,0.562,0.308,0.842,0.464V51.193z"/>
<path fill="#A1C3FC" d="M115.369,139.352h3.602v-2.429c-1.169,0.744-2.369,1.443-3.602,2.09V139.352z"/>
<path fill="#A1C3FC" d="M84.554,48.014v-1.998c-1.217,0.197-2.416,0.443-3.602,0.727v1.271H84.554L84.554,48.014z"/>
<path fill="#A1C3FC" d="M93.158,48.014v-2.623c-0.226-0.003-0.45-0.017-0.677-0.017c-0.982,0-1.956,0.037-2.925,0.094v2.547h3.602  V48.014z"/>
<path fill="#A1C3FC" d="M101.763,48.014v-1.756c-1.186-0.226-2.387-0.41-3.602-0.549v2.305  C98.161,48.014,101.763,48.014,101.763,48.014z"/>
<path fill="#A1C3FC" d="M108.397,48.014c-0.54-0.184-1.082-0.365-1.632-0.531v0.531H108.397z"/>
<path fill="#A1C3FC" d="M64.946,56.944v-3.173c-1.243,0.837-2.443,1.732-3.602,2.676v0.497H64.946L64.946,56.944z"/>
<rect x="69.948" y="51.193" fill="#A1C3FC" width="3.602" height="5.751"/>
<rect x="78.552" y="51.193" fill="#A1C3FC" width="3.602" height="5.751"/>
<rect x="87.155" y="51.193" fill="#A1C3FC" width="3.602" height="5.751"/>
<rect x="95.76" y="51.193" fill="#A1C3FC" width="3.602" height="5.751"/>
<rect x="104.363" y="51.193" fill="#A1C3FC" width="3.602" height="5.751"/>
<path fill="#A1C3FC" d="M112.968,56.944h3.602v-5.287c-0.279-0.156-0.558-0.313-0.842-0.464h-2.761  C112.968,51.193,112.968,56.944,112.968,56.944z"/>
<path fill="#A1C3FC" d="M124.222,56.944c-0.859-0.721-1.744-1.411-2.65-2.073v2.073H124.222z"/>
<path fill="#A1C3FC" d="M58.742,66.282v-5.751h-1.831c-0.607,0.631-1.196,1.277-1.77,1.939v3.813  C55.141,66.282,58.742,66.282,58.742,66.282z"/>
<rect x="63.745" y="60.531" fill="#A1C3FC" width="3.602" height="5.751"/>
<rect x="72.348" y="60.531" fill="#A1C3FC" width="3.602" height="5.751"/>
<rect x="80.953" y="60.531" fill="#A1C3FC" width="3.602" height="5.751"/>
<rect x="89.557" y="60.531" fill="#A1C3FC" width="3.602" height="5.751"/>
<rect x="98.16" y="60.531" fill="#A1C3FC" width="3.602" height="5.751"/>
<rect x="106.764" y="60.531" fill="#A1C3FC" width="3.602" height="5.751"/>
<rect x="115.369" y="60.531" fill="#A1C3FC" width="3.602" height="5.751"/>
<rect x="123.973" y="60.531" fill="#A1C3FC" width="3.602" height="5.751"/>
<path fill="#A1C3FC" d="M132.814,66.282c-0.078-0.111-0.157-0.223-0.236-0.334v0.334H132.814z"/>
<path fill="#A1C3FC" d="M47.737,73.823c-0.216,0.459-0.423,0.923-0.626,1.39h0.626V73.823z"/>
<rect x="52.74" y="69.461" fill="#A1C3FC" width="3.602" height="5.751"/>
<rect x="61.343" y="69.461" fill="#A1C3FC" width="3.602" height="5.751"/>
<rect x="69.948" y="69.461" fill="#A1C3FC" width="3.602" height="5.751"/>
<rect x="78.552" y="69.461" fill="#A1C3FC" width="3.602" height="5.751"/>
<rect x="87.155" y="69.461" fill="#A1C3FC" width="3.602" height="5.751"/>
<rect x="95.76" y="69.461" fill="#A1C3FC" width="3.602" height="5.751"/>
<rect x="104.363" y="69.461" fill="#A1C3FC" width="3.602" height="5.751"/>
<rect x="112.968" y="69.461" fill="#A1C3FC" width="3.602" height="5.751"/>
<rect x="121.572" y="69.461" fill="#A1C3FC" width="3.602" height="5.751"/>
<rect x="130.175" y="69.461" fill="#A1C3FC" width="3.602" height="5.751"/>
<rect x="46.536" y="78.799" fill="#A1C3FC" width="3.602" height="5.751"/>
<rect x="55.141" y="78.799" fill="#A1C3FC" width="3.602" height="5.751"/>
<rect x="63.745" y="78.799" fill="#A1C3FC" width="3.602" height="5.751"/>
<rect x="72.348" y="78.799" fill="#A1C3FC" width="3.602" height="5.751"/>
<rect x="80.953" y="78.799" fill="#A1C3FC" width="3.602" height="5.751"/>
<rect x="89.557" y="78.799" fill="#A1C3FC" width="3.602" height="5.751"/>
<rect x="98.16" y="78.799" fill="#A1C3FC" width="3.602" height="5.751"/>
<rect x="106.764" y="78.799" fill="#A1C3FC" width="3.602" height="5.751"/>
<rect x="115.369" y="78.799" fill="#A1C3FC" width="3.602" height="5.751"/>
<rect x="123.973" y="78.799" fill="#A1C3FC" width="3.602" height="5.751"/>
<rect x="132.576" y="78.799" fill="#A1C3FC" width="3.602" height="5.751"/>
<rect x="44.135" y="87.729" fill="#A1C3FC" width="3.602" height="5.751"/>
<rect x="52.74" y="87.729" fill="#A1C3FC" width="3.602" height="5.751"/>
<rect x="61.343" y="87.729" fill="#A1C3FC" width="3.602" height="5.751"/>
<rect x="69.948" y="87.729" fill="#A1C3FC" width="3.602" height="5.751"/>
<rect x="78.552" y="87.729" fill="#A1C3FC" width="3.602" height="5.751"/>
<rect x="87.155" y="87.729" fill="#A1C3FC" width="3.602" height="5.751"/>
<rect x="95.76" y="87.729" fill="#A1C3FC" width="3.602" height="5.751"/>
<rect x="104.363" y="87.729" fill="#A1C3FC" width="3.602" height="5.751"/>
<rect x="112.968" y="87.729" fill="#A1C3FC" width="3.602" height="5.751"/>
<rect x="121.572" y="87.729" fill="#A1C3FC" width="3.602" height="5.751"/>
<rect x="130.175" y="87.729" fill="#A1C3FC" width="3.602" height="5.751"/>
<path fill="#A1C3FC" d="M138.78,93.48h3.137c-0.059-1.947-0.22-3.867-0.496-5.751h-2.641V93.48z"/>
<rect x="46.536" y="97.066" fill="#A1C3FC" width="3.602" height="5.751"/>
<rect x="55.141" y="97.066" fill="#A1C3FC" width="3.602" height="5.751"/>
<rect x="63.745" y="97.066" fill="#A1C3FC" width="3.602" height="5.751"/>
<rect x="72.348" y="97.066" fill="#A1C3FC" width="3.602" height="5.751"/>
<rect x="80.953" y="97.066" fill="#A1C3FC" width="3.602" height="5.751"/>
<rect x="89.557" y="97.066" fill="#A1C3FC" width="3.602" height="5.751"/>
<rect x="98.16" y="97.066" fill="#A1C3FC" width="3.602" height="5.751"/>
<rect x="106.764" y="97.066" fill="#A1C3FC" width="3.602" height="5.751"/>
<rect x="115.369" y="97.066" fill="#A1C3FC" width="3.602" height="5.751"/>
<rect x="123.973" y="97.066" fill="#A1C3FC" width="3.602" height="5.751"/>
<rect x="132.576" y="97.066" fill="#A1C3FC" width="3.602" height="5.751"/>
<path fill="#A1C3FC" d="M141.181,97.066v5.751h0.16c0.297-1.883,0.483-3.804,0.563-5.751H141.181z"/>
<path fill="#A1C3FC" d="M47.737,105.996h-3.499c0.442,1.963,0.993,3.884,1.66,5.751h1.838  C47.737,111.747,47.737,105.996,47.737,105.996z"/>
<rect x="52.74" y="105.996" fill="#A1C3FC" width="3.602" height="5.751"/>
<rect x="61.343" y="105.996" fill="#A1C3FC" width="3.602" height="5.751"/>
<rect x="69.948" y="105.996" fill="#A1C3FC" width="3.602" height="5.751"/>
<rect x="78.552" y="105.996" fill="#A1C3FC" width="3.602" height="5.751"/>
<rect x="87.155" y="105.996" fill="#A1C3FC" width="3.602" height="5.751"/>
<rect x="95.76" y="105.996" fill="#A1C3FC" width="3.602" height="5.751"/>
<rect x="104.363" y="105.996" fill="#A1C3FC" width="3.602" height="5.751"/>
<rect x="112.968" y="105.996" fill="#A1C3FC" width="3.602" height="5.751"/>
<rect x="121.572" y="105.996" fill="#A1C3FC" width="3.602" height="5.751"/>
<rect x="130.175" y="105.996" fill="#A1C3FC" width="3.602" height="5.751"/>
<path fill="#A1C3FC" d="M138.78,111.747h0.284c0.667-1.867,1.218-3.788,1.66-5.751h-1.944V111.747z"/>
<path fill="#A1C3FC" d="M47.348,115.334c0.828,1.847,1.753,3.64,2.79,5.359v-5.359H47.348z"/>
<rect x="55.141" y="115.334" fill="#A1C3FC" width="3.602" height="5.751"/>
<rect x="63.745" y="115.334" fill="#A1C3FC" width="3.602" height="5.751"/>
<rect x="72.348" y="115.334" fill="#A1C3FC" width="3.602" height="5.751"/>
<rect x="80.953" y="115.334" fill="#A1C3FC" width="3.602" height="5.751"/>
<rect x="89.557" y="115.334" fill="#A1C3FC" width="3.602" height="5.751"/>
<rect x="98.16" y="115.334" fill="#A1C3FC" width="3.602" height="5.751"/>
<rect x="106.764" y="115.334" fill="#A1C3FC" width="3.602" height="5.751"/>
<rect x="115.369" y="115.334" fill="#A1C3FC" width="3.602" height="5.751"/>
<rect x="123.973" y="115.334" fill="#A1C3FC" width="3.602" height="5.751"/>
<path fill="#A1C3FC" d="M132.576,115.334v5.751h2c0.564-0.913,1.097-1.846,1.601-2.796v-2.955H132.576z"/>
<path fill="#A1C3FC" d="M52.74,124.263v0.308c1.118,1.51,2.324,2.948,3.602,4.319v-4.628H52.74V124.263z"/>
<rect x="61.343" y="124.263" fill="#A1C3FC" width="3.602" height="5.751"/>
<rect x="69.948" y="124.263" fill="#A1C3FC" width="3.602" height="5.751"/>
<rect x="78.552" y="124.263" fill="#A1C3FC" width="3.602" height="5.751"/>
<rect x="87.155" y="124.263" fill="#A1C3FC" width="3.602" height="5.751"/>
<rect x="95.76" y="124.263" fill="#A1C3FC" width="3.602" height="5.751"/>
<rect x="104.363" y="124.263" fill="#A1C3FC" width="3.602" height="5.751"/>
<rect x="112.968" y="124.263" fill="#A1C3FC" width="3.602" height="5.751"/>
<rect x="121.572" y="124.263" fill="#A1C3FC" width="3.602" height="5.751"/>
<path fill="#A1C3FC" d="M130.175,127.141c0.79-0.93,1.546-1.891,2.266-2.878h-2.266V127.141z"/>
<path fill="#A1C3FC" d="M63.745,133.601v1.801c1.165,0.835,2.364,1.624,3.602,2.358v-4.158H63.745L63.745,133.601z"/>
<rect x="72.348" y="133.601" fill="#A1C3FC" width="3.602" height="5.751"/>
<rect x="80.953" y="133.601" fill="#A1C3FC" width="3.602" height="5.751"/>
<rect x="89.557" y="133.601" fill="#A1C3FC" width="3.602" height="5.751"/>
<rect x="98.16" y="133.601" fill="#A1C3FC" width="3.602" height="5.751"/>
<rect x="106.764" y="133.601" fill="#A1C3FC" width="3.602" height="5.751"/>
<path fill="#A1C3FC" d="M115.369,133.601v5.411c1.232-0.646,2.433-1.345,3.602-2.09V133.6L115.369,133.601L115.369,133.601z"/>
<path fill="#A1C3FC" d="M78.552,142.531v0.106c1.184,0.348,2.384,0.658,3.602,0.917v-1.023H78.552z"/>
<path fill="#A1C3FC" d="M87.155,142.531v1.825c1.188,0.128,2.39,0.204,3.602,0.246v-2.071H87.155z"/>
<path fill="#A1C3FC" d="M95.76,142.531v1.995c1.213-0.08,2.414-0.202,3.602-0.368v-1.627H95.76z"/>
<path fill="#A1C3FC" d="M104.363,143.196c0.815-0.201,1.623-0.422,2.422-0.665h-2.422V143.196z"/>
<polygon fill="#23286B" points="156.095,12.786 150.119,7.517 155.371,1.522 161.346,6.79 "/>
<polygon fill="#89B3F4" points="172.171,48.368 166.195,43.1 171.446,37.104 177.422,42.373 "/>
<g>
	<path fill="#78A9EF" d="M183.31,46.129c-0.209,0-0.382-0.165-0.392-0.376c-0.084-1.813,0.029-8.171,4.986-13.853   c4.958-5.684,12.249-8.858,15.688-8.148c0.213,0.043,0.349,0.252,0.307,0.465c-0.044,0.214-0.256,0.348-0.465,0.307   c-3.216-0.659-10.295,2.572-14.939,7.895c-4.763,5.461-4.872,11.56-4.793,13.299c0.011,0.218-0.157,0.402-0.374,0.411   C183.323,46.129,183.317,46.129,183.31,46.129z"/>
</g>
<g>
	<path fill="#78A9EF" d="M151.26,44.42c-0.18,0-0.344-0.126-0.383-0.31c-2.152-9.865-8.652-18.752-17.384-23.773   c-0.189-0.108-0.254-0.349-0.146-0.538c0.108-0.189,0.348-0.255,0.536-0.146c8.922,5.131,15.562,14.211,17.761,24.288   c0.047,0.213-0.088,0.422-0.3,0.469C151.315,44.417,151.287,44.42,151.26,44.42z"/>
</g>
<linearGradient id="SVGID_3_-i1" gradientUnits="userSpaceOnUse" x1="1319.7301" y1="1755.4658" x2="1646.8652" y2="1614.5914" gradientTransform="matrix(0.2 0 0 0.2 -199.2 -214.2)">
	<stop offset="0" style="stop-color:#FFBEB6"/>
	<stop offset="1" style="stop-color:#F2A19C"/>
</linearGradient>
<path fill="url(#SVGID_3_-i1)" d="M99.057,93.1c0.852-2.329-3.655-2.675-6.182,0.714c-9.031,12.104-22.141,20.518-33.211,30.777  c-5.622,5.21-11.262,10.439-16.188,16.316c-3.433,4.097-6.51,8.498-10.137,12.423c-6.906,7.478-13.704,11.639-22.289,17.094  c5.107,4.394,7.637,10.969,11.166,16.715c9.177-7.427,18.848-15.575,22.12-26.94c1.215-4.22,1.471-8.697,2.985-12.818  c4.858-13.227,21.059-17.435,31.588-26.769C86.929,113.506,95.206,103.627,99.057,93.1z"/>
<path fill="#FFBEB6" d="M14.52,172.234c2.066,5.587,5.225,10.764,9.243,15.153c0.984,1.075,2.166,2.171,3.62,2.231  c1.286,0.053,2.446-0.721,3.481-1.488c5.165-3.823,9.872-8.256,15.19-11.861c9.865-6.69,21.437-10.283,32.82-13.788  c15.629-4.812,42.845-10.775,46.97-12.746c3.876-1.853-5.399-7.023-9.409-6.751c-8.59,0.583-14.55,0.84-24.173,2.22  c-5.031,0.721-7.071,0.197-12.962,1.182c21.847-4.177,41.412-9.206,60.662-20.379c5.022-2.915,12.814-10.375,9.106-13.44  c-2.184-1.805-41.771,13.777-67.412,17.268c-4.404,0.6-17.654-1.402-21.762,0.298C40.42,138.182,35.18,168.128,14.52,172.234z"/>
<linearGradient id="SVGID_4_-i1" gradientUnits="userSpaceOnUse" x1="1411.0262" y1="1691.6278" x2="1765.1599" y2="1561.9775" gradientTransform="matrix(0.2 0 0 0.2 -199.2 -214.2)">
	<stop offset="0" style="stop-color:#FFBEB6"/>
	<stop offset="1" style="stop-color:#F2A19C"/>
</linearGradient>
<path fill="url(#SVGID_4_-i1)" d="M130.171,104.302c1.47-0.921,3.332-1.851,3.06-3.39c-0.537-3.046-5.363-2.421-8.322-1.552  c-22.8,6.697-44.46,17.288-63.767,31.18c-1.442,1.038-2.842,3.407-1.272,4.238c0.46,0.242,1.011,0.194,1.528,0.137  c23.093-2.55,45.793-8.653,67.063-18.031c7.774-3.427,14.303-5.441,20.542-11.219c1.972-1.826-1.531-5.725-4.095-5.021  C138.962,102.273,135.541,102.416,130.171,104.302z"/>
<linearGradient id="SVGID_5_-i1" gradientUnits="userSpaceOnUse" x1="2318.9814" y1="1710.5939" x2="2496" y2="1710.5939" gradientTransform="matrix(0.2 0 0 0.2 -199.2 -214.2)">
	<stop offset="0" style="stop-color:#428DFC"/>
	<stop offset="1" style="stop-color:#1D72D8"/>
</linearGradient>
<rect x="264.596" y="100.569" fill="url(#SVGID_5_-i1)" width="35.404" height="54.7"/>
<linearGradient id="SVGID_6_-i1" gradientUnits="userSpaceOnUse" x1="766.9602" y1="2320.6484" x2="944.5062" y2="2320.6484" gradientTransform="matrix(0.1784 -0.0903 0.0903 0.1784 -334.114 -166.8995)">
	<stop offset="0" style="stop-color:#428DFC"/>
	<stop offset="1" style="stop-color:#1D72D8"/>
</linearGradient>
<polygon fill="url(#SVGID_6_-i1)" points="56.207,186.214 24.62,202.253 0,153.448 31.587,137.41 "/>
<path id="texture_16_-i1" fill="#FFFFFF" d="M77.971,131.023c-0.279,0.091-0.447,0.33-0.358,0.61l0,0  c0.091,0.28,0.329,0.449,0.608,0.359l0,0c0.279-0.091,0.447-0.33,0.358-0.61l0,0C78.488,131.102,78.249,130.932,77.971,131.023  L77.971,131.023z M33.673,152.166c-0.239-0.17-0.518-0.08-0.688,0.161c-0.169,0.24-0.079,0.519,0.16,0.69l0,0  c0.239,0.17,0.518,0.08,0.688-0.161C34.132,152.635,33.913,152.335,33.673,152.166L33.673,152.166L33.673,152.166z M44.698,158.108  c-0.239-0.17-0.518-0.08-0.688,0.161c-0.169,0.24-0.079,0.519,0.16,0.689l0,0c0.239,0.17,0.518,0.08,0.688-0.161l0,0  C45.007,158.687,44.937,158.277,44.698,158.108L44.698,158.108z M54.748,135.58c-0.169,0.24-0.208,0.5-0.118,0.779  c0.239,0.17,0.498,0.209,0.777,0.119c0.169-0.24,0.208-0.5,0.099-0.649C55.306,135.4,55.047,135.36,54.748,135.58z M62.66,145.433  c-0.169,0.24-0.208,0.5-0.118,0.779c0.239,0.17,0.498,0.209,0.777,0.119c0.169-0.24,0.208-0.5,0.099-0.649  C63.217,145.252,62.829,145.193,62.66,145.433L62.66,145.433z M31.824,177.411c-0.259-0.04-0.557,0.181-0.597,0.441  c-0.04,0.26,0.18,0.559,0.439,0.599l0,0c0.259,0.04,0.557-0.181,0.597-0.441l0,0C32.303,177.75,32.082,177.451,31.824,177.411z   M44.336,178.794c-0.259-0.04-0.557,0.181-0.597,0.441s0.18,0.559,0.439,0.599c0.259,0.04,0.557-0.181,0.597-0.441l0,0  C44.814,179.133,44.595,178.833,44.336,178.794L44.336,178.794L44.336,178.794z M64.49,128.162c-0.149,0.11-0.337,0.48-0.099,0.649  c0.11,0.149,0.478,0.338,0.647,0.099c0.149-0.11,0.337-0.48,0.099-0.649l0,0C65.047,127.982,64.789,127.942,64.49,128.162  L64.49,128.162z M70.757,137.498c-0.149,0.11-0.337,0.48-0.099,0.649c0.11,0.149,0.349,0.319,0.647,0.099  c0.149-0.11,0.318-0.35,0.099-0.649l0,0C71.165,137.427,70.906,137.387,70.757,137.498L70.757,137.498L70.757,137.498z   M38.554,167.139c-0.259-0.04-0.538,0.05-0.578,0.311c-0.04,0.26,0.07,0.41,0.31,0.58l0,0c0.259,0.04,0.538-0.05,0.578-0.311l0,0  C38.903,167.458,38.813,167.178,38.554,167.139L38.554,167.139z M49.484,169.344c-0.259-0.04-0.538,0.05-0.578,0.311  c-0.04,0.26,0.07,0.41,0.31,0.58l0,0c0.259,0.04,0.538-0.05,0.578-0.311l0,0C49.832,169.663,49.741,169.384,49.484,169.344  L49.484,169.344z M53.08,147.425c-0.239-0.17-0.518-0.08-0.688,0.161c-0.169,0.24-0.079,0.519,0.16,0.689  c0.239,0.17,0.518,0.08,0.688-0.161C53.409,147.873,53.32,147.593,53.08,147.425L53.08,147.425z M53.885,122.95  c-0.239-0.17-0.518-0.08-0.688,0.161c-0.169,0.24-0.079,0.519,0.16,0.689c0.239,0.17,0.518,0.08,0.688-0.161  C54.214,123.399,54.125,123.12,53.885,122.95L53.885,122.95z M64.583,130.171c-0.239-0.17-0.518-0.08-0.687,0.161  c-0.169,0.24-0.079,0.519,0.16,0.689c0.239,0.17,0.518,0.08,0.687-0.161C64.912,130.621,64.822,130.34,64.583,130.171  L64.583,130.171z M75.428,137.282c-0.239-0.17-0.518-0.08-0.688,0.161c-0.169,0.24-0.079,0.519,0.16,0.689  c0.239,0.17,0.518,0.08,0.688-0.161C75.629,137.711,75.538,137.432,75.428,137.282z M42.988,176.327  c-0.279,0.091-0.447,0.33-0.358,0.61c0.091,0.28,0.329,0.449,0.608,0.359c0.279-0.09,0.447-0.33,0.358-0.61  C43.635,176.426,43.267,176.237,42.988,176.327L42.988,176.327z M91.713,129.536c-0.219-0.3-0.478-0.338-0.777-0.119   M49.287,148.839c-0.259-0.04-0.557,0.181-0.597,0.441c-0.04,0.26,0.18,0.559,0.439,0.599c0.259,0.04,0.557-0.181,0.597-0.441l0,0  C49.766,149.177,49.546,148.877,49.287,148.839L49.287,148.839L49.287,148.839z M48.777,139.984  c-0.259-0.04-0.557,0.181-0.597,0.441c-0.04,0.26,0.18,0.559,0.439,0.599c0.259,0.04,0.538-0.05,0.597-0.441  C49.256,140.324,49.037,140.024,48.777,139.984L48.777,139.984z M61.311,142.967c-0.259-0.04-0.557,0.181-0.597,0.441  s0.05,0.54,0.439,0.599c0.259,0.04,0.557-0.181,0.727-0.421C61.79,143.305,61.571,143.006,61.311,142.967L61.311,142.967z   M76.849,126.199c-0.239-0.17-0.518-0.08-0.688,0.161l0,0c-0.169,0.24-0.079,0.519,0.141,0.819c0.239,0.17,0.518,0.08,0.816-0.141  C77.178,126.647,77.087,126.367,76.849,126.199L76.849,126.199z M78.339,131.213c-0.259-0.04-0.409,0.071-0.557,0.181  c-0.04,0.26,0.07,0.41,0.18,0.559c0.259,0.04,0.409-0.071,0.557-0.181l0,0C78.559,131.512,78.468,131.232,78.339,131.213  L78.339,131.213L78.339,131.213z"/>
<g>
	<path fill="#E94A47" d="M246.628,165.273l-40.233-12.295c-0.859,1.096-1.634,2.285-2.299,3.567   c-0.565,1.089-1.029,2.204-1.404,3.333l43.179,13.194C246.588,170.497,246.828,167.859,246.628,165.273z"/>
	<path fill="#E94A47" d="M234.812,147.058l-8.514-2.602c-5.127-0.497-10.262,0.792-14.534,3.591l33.148,10.128   C242.978,153.58,239.521,149.598,234.812,147.058z"/>
	<path fill="#E94A47" d="M229.023,189.104l-21.258-6.496c1.675,1.768,3.662,3.294,5.938,4.483   C218.608,189.652,224.019,190.223,229.023,189.104z"/>
	<path fill="#E94A47" d="M243.337,178.873l-41.774-12.764c-0.111,2.878,0.331,5.736,1.274,8.422l34.782,10.628   C239.854,183.489,241.805,181.376,243.337,178.873z"/>
</g>
<polygon fill="#FFFFFF" points="115.072,149.592 113.049,147.562 115.072,145.533 117.095,147.562 "/>
<polygon fill="#FFFFFF" points="189.346,116.231 187.323,114.202 189.346,112.173 191.368,114.202 "/>

</g>
</g>

<!-- ITEM 2 -->
<g transform="translate(1362.0 708.0) scale(0.802547770700637 0.805) rotate(21.893795607876015 78.5 99.99999999999999)">
<g transform="translate(-0.0 -0.0)">

<path fill="#DBECFF" d="M76.416,47.676L35.565,6.686c-6.647,2.703-12.726,6.397-17.968,11.374l44.167,44.317  c2.478,2.486,2.478,6.515,0,9.001s-6.493,2.486-8.97,0L9.45,27.887c-4.109,6.338-6.873,13.462-8.327,21.049l36.57,36.694  c2.478,2.486,2.478,6.515,0,9.001c-2.478,2.486-6.493,2.486-8.97,0L0,65.811c1.076,21.472,11.232,44.574,29.844,63.25  c0.435,0.436,0.875,0.863,1.315,1.291c-3.095,4.408-5.994,8.967-8.602,13.723C15.238,157.415,7.345,177.947,11.302,200l6.243-1.128  c-3.628-20.218,3.745-39.29,10.569-51.729c2.353-4.29,4.969-8.431,7.768-12.457c17.468,15.145,38.132,23.631,57.36,24.684  L65.95,131.986c-2.478-2.486-2.478-6.515,0-9.001c2.478-2.486,6.493-2.486,8.97,0l35.17,35.29c7.55-1.47,14.597-4.295,20.796-8.536  l-40.866-41.005c-2.478-2.486-2.478-6.515,0-9.001c2.478-2.486,6.493-2.486,8.97,0l41.426,41.567  c4.69-5.365,8.133-11.726,10.628-18.739L113.643,85.03c-2.478-2.486-2.478-6.515,0-9.001c2.478-2.486,6.493-2.486,8.97,0  l32.148,32.257c1.567-8.671,2.173-17.886,2.238-27.158l-20.182-20.252c-2.478-2.486-2.478-6.515,0-9.001s6.493-2.486,8.97,0  l10.748,10.785c-1.328-25.929-4.756-49.683-0.656-60.066c-13.615,3.15-36.779-0.543-61.233-2.034l13.912,13.959  c2.478,2.486,2.478,6.515,0,9.001c-2.478,2.486-6.493,2.486-8.97,0L76.147,0c-9.175,0.069-18.24,0.76-26.767,2.546l36.007,36.129  c2.478,2.486,2.478,6.515,0,9.001C82.909,50.161,78.893,50.161,76.416,47.676z"/>

</g>
</g>

<!-- ITEM 3 -->
<g transform="translate(266.0 440.0) scale(-0.8535031847133758 0.855) rotate(-335.62609070186 78.5 100.0)">
<g transform="translate(-0.0 -0.0)">

<path fill="#DBECFF" d="M76.416,47.676L35.565,6.686c-6.647,2.703-12.726,6.397-17.968,11.374l44.167,44.317  c2.478,2.486,2.478,6.515,0,9.001s-6.493,2.486-8.97,0L9.45,27.887c-4.109,6.338-6.873,13.462-8.327,21.049l36.57,36.694  c2.478,2.486,2.478,6.515,0,9.001c-2.478,2.486-6.493,2.486-8.97,0L0,65.811c1.076,21.472,11.232,44.574,29.844,63.25  c0.435,0.436,0.875,0.863,1.315,1.291c-3.095,4.408-5.994,8.967-8.602,13.723C15.238,157.415,7.345,177.947,11.302,200l6.243-1.128  c-3.628-20.218,3.745-39.29,10.569-51.729c2.353-4.29,4.969-8.431,7.768-12.457c17.468,15.145,38.132,23.631,57.36,24.684  L65.95,131.986c-2.478-2.486-2.478-6.515,0-9.001c2.478-2.486,6.493-2.486,8.97,0l35.17,35.29c7.55-1.47,14.597-4.295,20.796-8.536  l-40.866-41.005c-2.478-2.486-2.478-6.515,0-9.001c2.478-2.486,6.493-2.486,8.97,0l41.426,41.567  c4.69-5.365,8.133-11.726,10.628-18.739L113.643,85.03c-2.478-2.486-2.478-6.515,0-9.001c2.478-2.486,6.493-2.486,8.97,0  l32.148,32.257c1.567-8.671,2.173-17.886,2.238-27.158l-20.182-20.252c-2.478-2.486-2.478-6.515,0-9.001s6.493-2.486,8.97,0  l10.748,10.785c-1.328-25.929-4.756-49.683-0.656-60.066c-13.615,3.15-36.779-0.543-61.233-2.034l13.912,13.959  c2.478,2.486,2.478,6.515,0,9.001c-2.478,2.486-6.493,2.486-8.97,0L76.147,0c-9.175,0.069-18.24,0.76-26.767,2.546l36.007,36.129  c2.478,2.486,2.478,6.515,0,9.001C82.909,50.161,78.893,50.161,76.416,47.676z"/>

</g>
</g>

              </svg>