<?xml version="1.0" encoding="utf-8"?>
<!-- Generator: Adobe Illustrator 23.0.3, SVG Export Plug-In . SVG Version: 6.00 Build 0)  -->
<!DOCTYPE svg PUBLIC "-//W3C//DTD SVG 1.1//EN" "http://www.w3.org/Graphics/SVG/1.1/DTD/svg11.dtd" [
	<!ENTITY ns_extend "http://ns.adobe.com/Extensibility/1.0/">
	<!ENTITY ns_ai "http://ns.adobe.com/AdobeIllustrator/10.0/">
	<!ENTITY ns_graphs "http://ns.adobe.com/Graphs/1.0/">
	<!ENTITY ns_vars "http://ns.adobe.com/Variables/1.0/">
	<!ENTITY ns_imrep "http://ns.adobe.com/ImageReplacement/1.0/">
	<!ENTITY ns_sfw "http://ns.adobe.com/SaveForWeb/1.0/">
	<!ENTITY ns_custom "http://ns.adobe.com/GenericCustomNamespace/1.0/">
	<!ENTITY ns_adobe_xpath "http://ns.adobe.com/XPath/1.0/">
]>
<svg version="1.1"
	 id="Vrstva_1" xmlns:x="&ns_extend;" xmlns:i="&ns_ai;" xmlns:graph="&ns_graphs;" xmlns:cc="http://creativecommons.org/ns#" xmlns:dc="http://purl.org/dc/elements/1.1/" xmlns:rdf="http://www.w3.org/1999/02/22-rdf-syntax-ns#" xmlns:svg="http://www.w3.org/2000/svg"
	 xmlns="http://www.w3.org/2000/svg" xmlns:xlink="http://www.w3.org/1999/xlink" x="0px" y="0px" width="222.6px" height="86.8px"
	 viewBox="0 0 222.6 86.8" style="enable-background:new 0 0 222.6 86.8;" xml:space="preserve">
<style type="text/css">
	.st0{fill:#990AE3;}
	.st1{fill:#FFFFFF;}
</style>
<metadata  id="metadata4963">
	<rdf:RDF>
		<cc:Work  rdf:about="">
			<dc:format>image/svg+xml</dc:format>
			<dc:type  rdf:resource="http://purl.org/dc/dcmitype/StillImage"></dc:type>
			<dc:title></dc:title>
		</cc:Work>
	</rdf:RDF>
	<sfw  xmlns="&ns_sfw;">
		<slices></slices>
		<sliceSourceBounds  bottomLeftOrigin="true" height="86.8" width="222.6" x="0" y="0"></sliceSourceBounds>
	</sfw>
</metadata>
<path id="path4874" class="st0" d="M57.2,64.6c11.3-6.5,19.3-14.7,23-23.5c1.5-6.3,2.4-13,2.4-20.2c0-1,0-2-0.1-2.9
	c-0.7,10.6-14.3,23.8-32.4,32.5C28.4,61.1,12,63.9,4.7,55.9c2.5,5,5.9,10,9.8,14.6C23.5,78.4,38.3,75.6,57.2,64.6z"/>
<path id="path4878" class="st0" d="M47.6,43.1c20.5-9.9,34.8-24,32.4-33.3C75.8,2.7,67.6,0,58.7,0C32.3,0,0,17.4,0,39.5
	c0,2.8,0.6,6,1.8,9.4C7.8,56.9,26.1,53.5,47.6,43.1z"/>
<path id="path4882" class="st0" d="M45.9,74.5L45.9,74.5c-14.4,5.9-22.7,4-27.3,0.3l-0.1-0.1c7.1,7.1,15.1,12,22.2,12
	c12.4,0,29.3-15,37.3-38.3C73.5,56.9,63.8,67.2,45.9,74.5z"/>
<path id="path4886" class="st1" d="M45.9,74.5L45.9,74.5c18-7.3,27.7-17.6,32.2-26c0.8-2.4,1.5-4.8,2.2-7.4
	c-3.7,8.7-11.8,16.9-23,23.5c-18.9,11-33.7,13.8-42.7,5.9c1.3,1.5,2.6,3,4,4.3l0.1,0.1C23.1,78.5,31.4,80.4,45.9,74.5z"/>
<path id="path4888" class="st1" d="M50.1,50.6c18.1-8.7,31.7-22,32.4-32.5c-0.3-3.3-1.2-6-2.5-8.3c2.5,9.3-11.8,23.4-32.4,33.3
	C26.1,53.5,7.8,56.9,1.8,48.9c0.8,2.3,1.8,4.6,3,7C12,63.9,28.4,61.1,50.1,50.6z"/>
<path id="path4928" class="st0" d="M101.4,32.4c-1.1,0-2.2-0.8-3.4-2.5c-0.7-1.2-1.1-2.1-1.1-2.7c0-1,0.7-2,2-2.9
	c1.4-0.9,2.8-1.3,4.4-1.3h26.5c1.7,0,2.5,0.8,2.5,2.3c0,1.8-0.5,3.4-1.4,4.9c-1,1.5-2,2.2-3.1,2.2h-8.6v29.3c0,1.8-0.5,3.4-1.4,4.9
	c-1,1.5-2,2.2-3.1,2.2s-2.2-0.8-3.4-2.5c-0.7-1.2-1.1-2.1-1.1-2.7V32.4H101.4z"/>
<path id="path4930" class="st0" d="M134.5,55.2c0.5,2,1.5,3.7,3.1,4.9c1.6,1.2,3.5,1.8,5.8,1.8c1.9,0,4.2-0.6,6.8-1.9
	c1.2-0.6,2.3-0.9,3.4-0.9c1.4,0,2.1,0.6,2.1,1.9c0,1.1-0.2,2.2-0.7,3.2c-0.5,1-1.1,1.8-1.9,2.3c-1.5,0.9-3.1,1.6-4.9,2.1
	c-1.8,0.5-3.6,0.7-5.3,0.7c-3.1,0-5.9-0.8-8.5-2.5c-2.6-1.6-4.6-3.8-6-6.4c-1.4-2.6-2.1-5.4-2.1-8.3c0-3.3,0.8-6.3,2.3-8.9
	c1.6-2.7,3.6-4.7,6.1-6.2c2.5-1.4,5.2-2.2,8.2-2.2c2.9,0,5.5,0.7,7.8,2c2.3,1.4,4.1,3.2,5.3,5.4c1.3,2.2,1.9,4.7,1.9,7.4
	c0,1.4-0.4,2.6-1.1,3.7c-0.7,1.1-1.5,1.6-2.4,1.6L134.5,55.2z M142.5,42.1c-2.1,0-3.8,0.6-5.3,1.8c-1.5,1.2-2.4,2.8-2.7,4.8h15.3
	c-0.1-1.9-0.8-3.4-2.2-4.7C146.2,42.7,144.5,42.1,142.5,42.1z"/>
<path id="path4932" class="st0" d="M169.7,68.7c-1.9,0-3.6-0.8-5.1-2.3s-2.1-3.3-2.1-5.4V26.6c0-0.9,0.7-1.9,2-2.7
	c1.3-0.9,2.7-1.3,4.2-1.3c1.6,0,2.4,0.7,2.4,2.2v33.4c0,0.6,0.1,1,0.4,1.4c0.2,0.4,0.7,0.7,1.3,0.9c0.7,0.3,1,0.9,1,1.8
	c0,1.6-0.4,3.1-1.3,4.4C171.6,68.1,170.7,68.7,169.7,68.7z"/>
<path id="path4934" class="st0" d="M182.8,31.4c-1.1,0-2.3-0.9-3.5-2.7c-0.8-1.3-1.2-2.2-1.2-2.9c0-1.1,0.7-2.1,2.2-3s3-1.4,4.7-1.4
	c1.8,0,2.7,0.8,2.7,2.5c0,1.3-0.2,2.5-0.7,3.7c-0.5,1.2-1.1,2.1-1.9,2.8C184.3,31.1,183.6,31.4,182.8,31.4L182.8,31.4z M182.8,68.7
	c-1,0-2.1-0.8-3.2-2.5c-0.7-1.1-1-2-1-2.5V39.6c0-0.9,0.7-1.9,2-2.7c1.3-0.9,2.7-1.3,4.2-1.3c1.6,0,2.4,0.7,2.4,2.2v24.2
	c0,1.2-0.2,2.3-0.7,3.4c-0.5,1.1-1,1.9-1.7,2.5C184.1,68.4,183.4,68.7,182.8,68.7z"/>
<path id="path4936" class="st0" d="M208,68.7c-3.1,0-5.9-0.8-8.5-2.3c-2.5-1.6-4.5-3.6-5.9-6.1c-1.4-2.5-2.1-5.3-2.1-8.3
	c0-3.2,0.8-6.1,2.4-8.7c1.6-2.6,3.7-4.7,6.2-6.1c2.5-1.4,5.3-2.2,8.2-2.2c2.5,0,4.9,0.7,7.3,2.1c1.5-1,3-1.5,4.5-1.5
	c1.6,0,2.4,0.7,2.4,2.2v24.2c0,1.2-0.2,2.3-0.7,3.4c-0.5,1.1-1,1.9-1.7,2.5c-0.7,0.6-1.3,0.9-2,0.9c-1,0-2.1-0.8-3.2-2.5
	c-0.4-0.7-0.7-1.3-0.9-1.8c-0.3,1-0.8,1.8-1.4,2.5c-0.6,0.7-1.2,1.1-1.8,1.4C210,68.6,209,68.7,208,68.7L208,68.7z M208.6,60.7
	c1.9,0,3.8-0.5,5.4-1.6V44.4c-1.6-0.9-3.4-1.4-5.4-1.4c-2.5,0-4.5,0.8-6.2,2.5s-2.5,3.7-2.5,6.3s0.8,4.6,2.5,6.3
	C204.1,59.8,206.2,60.7,208.6,60.7z"/>
</svg>
